{
    "asset" : {
        "generator" : "Khronos glTF Blender I/O v1.1.46",
        "version" : "2.0"
    },
    "scene" : 0,
    "scenes" : [
        {
            "name" : "Scene",
            "nodes" : [
                0,
                1,
                2,
                3
            ]
        }
    ],
    "nodes" : [
        {
            "name" : "Light",
            "rotation" : [
                0.16907575726509094,
                0.7558803558349609,
                -0.27217137813568115,
                0.570947527885437
            ],
            "translation" : [
                11.092970848083496,
                6.51657772064209,
                4.480340003967285
            ]
        },
        {
            "name" : "Camera",
            "rotation" : [
                0.483536034822464,
                0.33687159419059753,
                -0.20870360732078552,
                0.7804827094078064
            ],
            "translation" : [
                7.358891487121582,
                4.958309173583984,
                6.925790786743164
            ]
        },
        {
            "name" : "Light.001",
            "rotation" : [
                0.16907575726509094,
                0.7558803558349609,
                -0.27217137813568115,
                0.570947527885437
            ],
            "translation" : [
                -5.907415390014648,
                17.67458152770996,
                -2.5788917541503906
            ]
        },
        {
            "mesh" : 0,
            "name" : "desert_eagle",
            "rotation" : [
                0.6299323439598083,
                -0.2304132878780365,
                -0.39320623874664307,
                0.6288750171661377
            ]
        }
    ],
    "materials" : [
        {
            "doubleSided" : true,
            "emissiveFactor" : [
                0,
                0,
                0
            ],
            "name" : "Default OBJ.001",
            "pbrMetallicRoughness" : {
                "baseColorTexture" : {
                    "index" : 0,
                    "texCoord" : 0
                },
                "metallicFactor" : 0,
                "roughnessFactor" : 0.5
            }
        }
    ],
    "meshes" : [
        {
            "name" : "desert_eagle",
            "primitives" : [
                {
                    "attributes" : {
                        "POSITION" : 0,
                        "NORMAL" : 1,
                        "TEXCOORD_0" : 2
                    },
                    "indices" : 3,
                    "material" : 0
                }
            ]
        }
    ],
    "textures" : [
        {
            "source" : 0
        }
    ],
    "images" : [
        {
            "bufferView" : 4,
            "mimeType" : "image/jpeg",
            "name" : "aq_deserteagle_kumichodragon"
        }
    ],
    "accessors" : [
        {
            "bufferView" : 0,
            "componentType" : 5126,
            "count" : 10282,
            "max" : [
                0.6180999875068665,
                6.776319980621338,
                3.723318576812744
            ],
            "min" : [
                -0.6791999936103821,
                -4.586880207061768,
                -2.340081214904785
            ],
            "type" : "VEC3"
        },
        {
            "bufferView" : 1,
            "componentType" : 5126,
            "count" : 10282,
            "type" : "VEC3"
        },
        {
            "bufferView" : 2,
            "componentType" : 5126,
            "count" : 10282,
            "type" : "VEC2"
        },
        {
            "bufferView" : 3,
            "componentType" : 5123,
            "count" : 25758,
            "type" : "SCALAR"
        }
    ],
    "bufferViews" : [
        {
            "buffer" : 0,
            "byteLength" : 123384,
            "byteOffset" : 0
        },
        {
            "buffer" : 0,
            "byteLength" : 123384,
            "byteOffset" : 123384
        },
        {
            "buffer" : 0,
            "byteLength" : 82256,
            "byteOffset" : 246768
        },
        {
            "buffer" : 0,
            "byteLength" : 51516,
            "byteOffset" : 329024
        },
        {
            "buffer" : 0,
            "byteLength" : 248598,
            "byteOffset" : 380540
        }
    ],
    "buffers" : [
        {
            "byteLength" : 629140,
            "uri" : "data:application/octet-stream;base64,"
        }
    ]
}
